<?xml version="1.0" encoding="UTF-8"?>
<svg id="a" data-name="レイヤー 1" xmlns="http://www.w3.org/2000/svg" width="67.121875mm" height="16.976724mm" viewBox="0 0 190.266736 48.122997">
  <g>
    <g>
      <polygon points="166.982978 15.827074 180.225135 17.315934 188.04416 .697265 166.982978 15.827074" style="fill: #ea605d;"/>
      <line x1="181.51802" y1="16.654598" x2="168.046835" y2="15.13947" style="fill: none; stroke: #fceded; stroke-miterlimit: 10;"/>
    </g>
    <polygon points="189.82572 26.566815 188.040067 .69534 180.225135 17.315934 189.82572 26.566815" style="fill: #c3181f;"/>
    <line x1="180.438176" y1="16.405807" x2="189.687637" y2="25.29413" style="fill: none; opacity: .5; stroke: #fceded; stroke-miterlimit: 10;"/>
    <polygon points="166.982978 15.827074 188.04416 .697265 189.82572 26.566815 180.225135 17.315934 166.982978 15.827074" style="fill: none; stroke: #221714; stroke-miterlimit: 10; stroke-width: .75px;"/>
  </g>
  <g>
    <path d="M6.413136,41.42036c-.633789,0-1.222656-.405273-1.427246-1.041016-.253906-.788574.179688-1.633301.968262-1.887207.832031-.268066,1.822754-.625,3.211914-1.157227.776367-.296875,1.641602.090332,1.9375.863281.296875.773926-.089844,1.641113-.863281,1.9375-1.442383.553223-2.480957.926758-3.367188,1.211914-.152832.049316-.307617.072754-.459961.072754Z" style="fill: #e50012; opacity: .4;"/>
    <path d="M176.115285,26.271434c-.348633,0-.699219-.121094-.983398-.368164-.625-.543457-.691406-1.490723-.147461-2.116211,1.242188-1.429199,1.821289-2.534668,1.827148-2.545898.379883-.73291,1.283203-1.022949,2.018555-.645996.735352.37793,1.027344,1.277344.651367,2.013672-.029297.057129-.730469,1.418457-2.233398,3.146973-.296875.34082-.713867.515625-1.132812.515625Z" style="fill: #e50012; opacity: .9;"/>
    <path d="M164.872121,33.750926c-.546556-.141073-.922852-.416016-1.124023-.909668-.313477-.76709.065616-1.617011.822266-1.955566,2.734632-1.223583,6.30898-2.132715,7.535156-2.04541.338992.024137,1.133338.504238,1.177734,1.300781.042095.755257-.388014,1.547323-1.323242,1.657227-3.873782.45523-6.228334,2.174499-7.087891,1.952637Z" style="fill: #e50012; opacity: .73;"/>
    <path d="M177.906301,48.122997c-.632812,0-1.220703-.402832-1.426758-1.036621-.255859-.788086.174805-1.634277.962891-1.890137,1.942383-.631836,3.533203-1.934082,4.364258-3.572754.375977-.739258,1.27832-1.03418,2.016602-.658691.739258.374512,1.03418,1.277344.65918,2.016113-1.19043,2.344727-3.417969,4.191895-6.112305,5.067871-.154297.050293-.310547.074219-.463867.074219Z" style="fill: #e50012; opacity: .78;"/>
    <path d="M171.108449,47.778759c-.212891,0-.429688-.045898-.634766-.14209-2.385742-1.116211-4.230469-3.126953-5.334961-5.814453-.314453-.766602.050781-1.642578.817383-1.95752.769531-.314453,1.643555.051758,1.958008.816895.813477,1.980469,2.138672,3.445801,3.831055,4.238281.75.351074,1.074219,1.244141.722656,1.994141-.254883.544922-.794922.864746-1.359375.864746Z" style="fill: #e50012; opacity: .81;"/>
    <path d="M131.560597,41.883739h-.012695c-2.323242-.02002-4.710938-.15625-7.09668-.404785-.824219-.085449-1.422852-.823242-1.336914-1.646973.084961-.823242.819336-1.432617,1.647461-1.336426,2.291992.238281,4.583984.369141,6.811523.388184.828125.007324,1.494141.68457,1.487305,1.512695-.006836.824219-.677734,1.487305-1.5,1.487305Z" style="fill: #e50012; opacity: .65;"/>
    <path d="M138.514699,41.584911c-.763672,0-1.416992-.581055-1.491211-1.357422-.079102-.824707.525391-1.557129,1.350586-1.635742,2.25-.214844,4.513672-.554199,6.726562-1.008301.804688-.166504,1.605469.35498,1.771484,1.167969.166016.811523-.356445,1.604004-1.167969,1.770508-2.318359.475586-4.688477.831055-7.044922,1.056152-.048828.004883-.09668.006836-.144531.006836Z" style="fill: #e50012; opacity: .67;"/>
    <path d="M117.717824,40.46577c-.09375,0-.188477-.008789-.283203-.027344-2.256836-.431152-4.578125-.966797-6.897461-1.592773-.799805-.21582-1.273438-1.039062-1.057617-1.838867.21582-.800781,1.041992-1.272461,1.838867-1.057617,2.248047.606445,4.495117,1.125488,6.678711,1.542969.813477.155273,1.347656.940918,1.192383,1.754883-.137695.718262-.766602,1.21875-1.47168,1.21875Z" style="fill: #e50012; opacity: .62;"/>
    <path d="M152.143605,38.804149c-.638672,0-1.230469-.411133-1.431641-1.052734-.24707-.790527.193359-1.631836.983398-1.879395,2.045898-.640137,4.094727-1.376465,6.448242-2.316895.767578-.308105,1.641602.065918,1.949219.835938.307617.769043-.066406,1.64209-.835938,1.949219-2.426758.970215-4.543945,1.731445-6.665039,2.39502-.149414.046387-.300781.068848-.448242.068848Z" style="fill: #e50012; opacity: .7;"/>
    <path d="M16.192433,37.702098c-.602051,0-1.17041-.365234-1.399902-.960449-.29834-.772949.086426-1.641113.859375-1.939453,2.436523-.939941,4.528809-1.712402,6.583984-2.430176.78125-.272949,1.637695.13916,1.910645.921387.273438.782227-.13916,1.637695-.921387,1.910645-2.024414.707031-4.087402,1.46875-6.493164,2.396973-.177734.068359-.360352.101074-.539551.101074Z" style="fill: #e50012; opacity: .42;"/>
    <path d="M183.492238,37.021434c-.625977,0-1.209961-.39502-1.420898-1.020996-.607422-1.799805-1.912109-3.057129-3.876953-3.737305-.783203-.270996-1.198242-1.125-.927734-1.908203.271484-.782227,1.12793-1.197754,1.908203-.926758,2.847656.985352,4.832031,2.92627,5.738281,5.613281.265625.784668-.15625,1.635742-.941406,1.900879-.15918.053711-.320312.079102-.479492.079102Z" style="fill: #e50012; opacity: .76;"/>
    <path d="M104.265676,36.86079c-.160156,0-.324219-.025879-.484375-.081055-1.768555-.603027-3.57666-1.267578-5.37207-1.975098-.402832-.157715-.805664-.313477-1.208008-.466309-.774902-.293945-1.164062-1.160156-.870117-1.93457.293945-.773926,1.15918-1.164551,1.93457-.870117.413086.156738.82666.316406,1.241211.479004,1.753906.690918,3.517578,1.339355,5.243164,1.928223.78418.26709,1.203125,1.119629.935547,1.903809-.212891.623535-.795898,1.016113-1.419922,1.016113Z" style="fill: #e50012; opacity: .59;"/>
    <path d="M166.197316,35.975536c-.183594,0-.370117-.033691-.550781-.10498-.770508-.304199-1.148438-1.175293-.844727-1.945801.023438-.058105,1.40214-2.779968,3.011719-4.256836.673828-.64209.833673-.904267,1.94043-1.628906.692839-.45363,1.599609-.369141,2.100586.29248.119141.156738.374712.502993.157568,1.200081-1.007693,1.368068-1.729175,1.770964-2.599951,2.779411-.738281.775391-1.413086,1.68457-1.819336,2.714355-.232422.589844-.797852.950195-1.395508.950195Z" style="fill: #e50012; opacity: .87;"/>
    <path d="M29.356984,33.130321c-.64502,0-1.240723-.419434-1.436035-1.068848-.238281-.793457.211426-1.629883,1.004883-1.868164,2.282715-.686035,4.569336-1.311035,6.796387-1.857422.805664-.19873,1.616699.294922,1.814453,1.099609.197266.804688-.294922,1.616699-1.099609,1.814453-2.177734.533691-4.414062,1.14502-6.647949,1.816406-.144043.043457-.289062.063965-.432129.063965Z" style="fill: #e50012; opacity: .45;"/>
    <path d="M91.139699,32.189403c-.144043,0-.290039-.020996-.435059-.064941-2.186523-.662109-4.417969-1.25293-6.632812-1.756348-.808105-.184082-1.313965-.987793-1.130371-1.79541.18457-.808105.990723-1.311035,1.79541-1.130371,2.283203.519531,4.583496,1.128418,6.836914,1.811035.792969.239746,1.241211,1.077148,1.000977,1.870117-.196289.647949-.791016,1.065918-1.435059,1.065918Z" style="fill: #e50012; opacity: .56;"/>
    <path d="M42.889211,29.824169c-.708984,0-1.339355-.504883-1.473145-1.227051-.151367-.814453.38623-1.597168,1.201172-1.748047,2.330078-.432617,4.677246-.794922,6.977051-1.077148.818848-.103516,1.570312.483398,1.671387,1.306152.101074.822266-.483887,1.570312-1.306152,1.671387-2.23877.274902-4.524902.62793-6.79541,1.048828-.092285.017578-.18457.025879-.274902.025879Z" style="fill: #e50012; opacity: .48;"/>
    <path d="M77.561574,29.103466c-.075684,0-.152344-.005371-.229492-.01709-2.25-.345215-4.54248-.61377-6.812988-.79834-.825684-.067383-1.44043-.791016-1.373535-1.616699.067383-.825684.779785-1.449219,1.616699-1.373535,2.34082.19043,4.70459.467285,7.024902.823242.818848.125488,1.380859.891113,1.255371,1.709961-.11377.741699-.75293,1.272461-1.480957,1.272461Z" style="fill: #e50012; opacity: .53;"/>
    <path d="M56.714894,28.135692c-.789062,0-1.450684-.616699-1.496094-1.414551-.047363-.827148.584961-1.535645,1.412109-1.583008,2.356445-.134277,4.723145-.189941,7.066406-.165039.828613.008789,1.493164.6875,1.484375,1.515625-.008789.823242-.678711,1.484375-1.499512,1.484375h-.016113c-2.286621-.026855-4.576172.029297-6.864258.160156-.029297.001465-.058105.002441-.086914.002441Z" style="fill: #e50012; opacity: .51;"/>
  </g>
  <g>
    <path d="M9.078166,32.180251L.013245,7.645337c-.040726-.110228.015617-.232601.125845-.273327l5.514887-2.037576c.11023-.040726.232604.015619.273328.125849l5.840317,15.808337c.040724.11023.163098.166575.273328.125849l11.780507-4.352516c.11023-.040726.232604.015619.273328.12585l3.076649,8.327873c.040723.110228-.015622.232599-.12585.273322l-17.694094,6.537097c-.110227.040724-.232597-.015619-.273323-.125846Z" style="fill: #1e2346;"/>
    <path d="M39.72759,23.244091c-6.079102,1.241211-10.931641-1.734375-12.132324-7.613281-1.207031-5.912109,2.083496-10.585449,8.162598-11.82666s10.871582,1.78125,12.078613,7.693359c1.200684,5.878906-2.029785,10.504883-8.108887,11.746582ZM38.851613,13.332469c-.641113-3.139648-2.205566-4.838379-4.109863-4.449707-1.703125.348145-2.677246,2.564941-2.036133,5.70459s2.312988,4.851074,4.116699,4.48291c1.903809-.388672,2.677246-2.564941,2.029297-5.737793Z" style="fill: #1e2346;"/>
    <path d="M62.856288,9.58233c-.121736.021438-.231635-.068494-.243072-.191573-.173137-1.863088-1.058564-3.271166-2.466681-3.258971-1.602051.013672-2.712402,1.727539-2.686035,4.79541.027832,3.306641.997559,5.10498,2.702148,5.090332,1.363103-.011431,2.391253-1.317608,2.607724-4.07218.008974-.114187.1054-.206105.219771-.199909l8.277107.448433c.118389.006414.211074.113255.204724.231648-.320652,5.978034-3.47044,8.400284-9.802002,8.454313-5.522461.046875-9.334961-3.29541-9.390625-9.840332-.05127-6.067871,3.562988-9.950684,9.153809-9.998535,5.601987-.047572,9.046148,2.333652,9.906135,6.821667.022589.117887-.058194.236081-.176407.256899l-8.306596,1.462798Z" style="fill: #1e2346;"/>
    <path d="M92.219271,24.364268c-.033038.079702-.106307.133965-.192579.134931-.566214.006339-1.233211-.066503-1.974395-.213116-2.593018-.513464-5.796603-1.829364-6.301519-3.127695-.053852-.138474-.220453-.167158-.332813-.069945-1.287147,1.113631-3.236905,1.24222-5.234321.846566-2.875-.569336-4.730957-2.952148-4.101562-6.128418l.019531-.100098c.675781-3.410156,2.543945-5.124512,6.506836-5.486328,2.051758-.184082,3.401367-.507324,3.553711-1.276367.211914-1.069824-.243164-1.40332-1.681152-1.687988-1.121139-.222044-3.251403.381868-4.54563,1.586526-.122515.114037-.317723.061446-.354564-.101824l-.903503-4.004153c-.017927-.079449.00758-.16382.069642-.216563,1.892606-1.60841,5.553065-1.990054,9.035324-1.300607,5.91748,1.172363,8.301758,3.868164,7.487305,7.980469l-1.191895,6.017578c-.191895.969727.022949,1.463867,1.125977,1.682617.334473.065918.742188.111816,1.223633.137695l-2.208026,5.32672ZM83.378629,13.600779c.033198-.16754-.134239-.306134-.290155-.236407-.535524.239491-1.159585.429522-2.005416.59798-.558724.121015-.999428.33871-1.330096.693659-1.472627,1.580767.895097,3.989743,2.442501,2.482099.27586-.268771.513007-.608922.683005-1.01316l.500161-2.524171Z" style="fill: #1e2346;"/>
    <path d="M96.082081,25.942512L104.666556,1.231216c.038562-.111005.159811-.169731.270815-.131167l10.230649,3.554197c5.569336,1.935059,8.5625,7.34082,6.583008,13.039551-2.001953,5.762695-6.932617,7.802734-12.271484,6.344727-.62207-.180176-1.245117-.360352-1.792969-.550781-1.69885-.589977-3.012894-1.255541-3.822193-1.873484-.115936-.088523-.275403-.039084-.323281.098702l-2.114772,6.086025c-.038568.110993-.159806.16971-.270803.131153l-4.942273-1.716813c-.111006-.03856-.169733-.159808-.131171-.270813ZM107.843324,9.118454l-2.342115,6.744103c-.028924.083287-.008585.177077.058571.234203.287674.244707.667063.461663,1.123864.619986.257812.089355.526367.146973.794922.204102,2.150391.458496,3.52832-.289551,4.311523-2.543457.838867-2.414551-.173828-4.17334-1.879883-4.766113l-1.796056-.624009c-.111013-.03857-.232272.020167-.270827.131185Z" style="fill: #c9363c;"/>
    <path d="M132.72173,34.794384c-6.204102.052734-10.395508-3.797852-10.446289-9.797363-.051758-6.033691,4.074219-9.989258,10.277344-10.041992,6.205078-.052734,10.329102,3.83252,10.379883,9.866211.050781,5.999512-4.006836,9.92041-10.210938,9.973145ZM133.762746,24.898876c-.027344-3.204102-1.237305-5.170898-3.179688-5.154297-1.739258.014648-3.120117,2.003418-3.092773,5.208008.027344,3.204102,1.339844,5.204102,3.180664,5.188477,1.943359-.016113,3.119141-2.003418,3.091797-5.242188Z" style="fill: #c9363c;"/>
    <path d="M159.134083,15.275398c.005496.15055-.142834.252332-.284047.19985-2.637897-.980381-5.360206-.857384-7.827525.050093-1.759766.646973-2.273438,1.126465-2.085938,1.638672.165039.447754.630859.530762,4.55957-.441895,5.364258-1.317871,8.617188.318848,10.029297,4.158691,1.329102,3.615723-.289062,6.426758-6.208984,8.603027-3.651698,1.342607-7.797701,1.531203-10.120897.094341-.070764-.043767-.108599-.125584-.10098-.208439l.385072-4.187416c.01439-.156486.182569-.237403.317008-.156034,1.857573,1.124294,4.323675,1.464476,5.691671.961454,1.120117-.412109,1.598633-.987305,1.304688-1.787109-.375977-1.023926-1.300781-1.265625-3.68457-.933594-3.942383.541016-6.202148-1.061523-7.237305-3.877441-1.118164-3.039551,1.126953-6.516602,5.03125-7.952148,4.192361-1.541337,7.395749-1.711748,9.879546-1.255954.09907.01818.169971.103975.173646.204632l.178497,4.889271Z" style="fill: #c9363c;"/>
  </g>
</svg>